<svg version="1.1" id="y-logo" xmlns="http://www.w3.org/2000/svg"
     x="0px" y="0px" viewBox="0.029496192932128906 0 473.2704772949219 519.9000244140625"
     xml:space="preserve" width="170"
     height="180" class="style-removed" preserveAspectRatio="none">
  <g>

	<path fill="#091034"
        d="M472.4,236.4c-1.1-13.6-13.1-23.7-26.7-22.5c-13.6,1.1-23.7,13.1-22.5,26.7c0.5,5.9,0.7,11.8,0.7,17.7   c0,22-3.4,43.7-10.1,64.4c-4.2,13,2.9,26.9,15.9,31.1c2.5,0.8,5.1,1.2,7.6,1.2c10.4,0,20.1-6.6,23.5-17.1   c8.3-25.6,12.5-52.4,12.5-79.6C473.3,250.9,473,243.6,472.4,236.4z"/>
    <path fill="#091034"
          d="M433.2,199.3c2.9,0,5.9-0.5,8.8-1.6c12.7-4.9,19.1-19.2,14.2-31.9c-18.5-48.2-50.8-89.5-93.3-119.2   C319.5,16.1,268.4,0,215.1,0c-41.9,0-83.5,10.3-120.3,29.7C59.2,48.5,28,75.8,4.6,108.6c-7.9,11.1-5.3,26.5,5.8,34.4   c11.1,7.9,26.5,5.3,34.4-5.8c39.2-55,102.8-87.9,170.3-87.9c85.9,0,164.3,53.9,195.1,134.1C413.9,193.3,423.3,199.3,433.2,199.3z"/>
    <path fill="#091034"
          d="M161.5,141.6c12.6-5.3,18.4-19.8,13.1-32.4s-19.8-18.4-32.4-13.1c-32.3,13.7-58.2,35-77,63.5   c-18,27.2-28.6,59.8-31.6,96.8c-1.8,22.9-0.8,40.9,0.1,58.2c0.4,7.4,0.8,15.1,1,23.2c0.3,13.4,11.3,24.1,24.7,24.1   c0.2,0,0.4,0,0.6,0c13.6-0.3,24.4-11.7,24.1-25.3c-0.2-8.8-0.7-16.9-1.1-24.7c-0.9-16.4-1.8-31.9-0.2-51.5   C86.2,219.9,102.5,166.6,161.5,141.6z"/>
    <path fill="#091034"
          d="M220.2,81.9c-13.6-0.5-25.1,10.1-25.6,23.7s10.1,25.1,23.7,25.6c71.4,2.7,127.4,61,127.4,132.5   c0,24.3-6.6,48.1-19.2,68.8c-7.1,11.7-3.4,26.8,8.3,33.9c4,2.4,8.4,3.6,12.8,3.6c8.3,0,16.5-4.2,21.1-11.9   c17.3-28.4,26.4-61.1,26.4-94.5c0-47.4-18.1-92.2-51-126.3C311.4,103.4,267.4,83.7,220.2,81.9z"/>
    <path fill="#091034"
          d="M282.4,203.3c-13.6,0-24.7,11.1-24.7,24.7v124.5c0,0.9-0.2,1.9-0.7,2.7l-8,15.2h-79.3L170,228   c0-13.6-11-24.7-24.6-24.7c0,0,0,0-0.1,0c-13.6,0-24.7,11-24.7,24.6l-0.3,150.8c0,11,4.2,21.3,12,29.1c7.8,7.8,18.1,12.1,29.1,12.1   H223l-25,47.5c-1,1.9-3,3.1-5.1,3.1H47c-13.6,0-24.7,11.1-24.7,24.7s11.1,24.7,24.7,24.7h145.9c20.5,0,39.3-11.3,48.8-29.5   l43.9-83.4c0-0.1,0.1-0.2,0.1-0.3l15-28.5c4.2-7.9,6.4-16.8,6.4-25.7V228C307.1,214.4,296.1,203.3,282.4,203.3z"/>
</g>
</svg>
